<?xml version="1.0" encoding="utf-8"?>
<!-- Generator: Adobe Illustrator 25.4.1, SVG Export Plug-In . SVG Version: 6.00 Build 0)  -->
<svg version="1.1" id="Capa_1" xmlns="http://www.w3.org/2000/svg" xmlns:xlink="http://www.w3.org/1999/xlink" x="0px" y="0px"
	 viewBox="0 0 72 72" style="enable-background:new 0 0 72 72;" xml:space="preserve">
<style type="text/css">
	.st0{fill:#FFFFFF;}
</style>
<rect width="72" height="72"/>
<g>
	<path class="st0" d="M53.4,27.4l-6.6,17.2H25.6L19,27.4H53.4 M53.4,18H19c-3.1,0-5.9,1.6-7.8,4.1S9,28,10.2,30.8l6.6,17.2
		c1.3,3.8,5,5.9,8.8,5.9h21c3.8,0,7.2-2.5,8.8-5.9l6.6-17.2c1.3-2.8,0.6-6.3-0.9-8.8C59.4,19.6,56.5,18,53.4,18L53.4,18z M53.4,36.8
		L53.4,36.8L53.4,36.8L53.4,36.8z"/>
</g>
</svg>
